{
    "asset" : {
        "generator" : "Khronos glTF Blender I/O v3.3.32",
        "version" : "2.0"
    },
    "scene" : 0,
    "scenes" : [
        {
            "name" : "Scene",
            "nodes" : [
                0,
                1
            ]
        }
    ],
    "nodes" : [
        {
            "mesh" : 0,
            "name" : "Cylinder",
            "rotation" : [
                0,
                0,
                -0.7071067094802856,
                0.7071068286895752
            ],
            "scale" : [
                1,
                0.16880792379379272,
                1
            ]
        },
        {
            "mesh" : 1,
            "name" : "Text",
            "rotation" : [
                0.5,
                0.5,
                -0.5,
                0.5
            ],
            "scale" : [
                0.522257924079895,
                0.522257924079895,
                0.522257924079895
            ],
            "translation" : [
                0.30423086881637573,
                0.3449414074420929,
                0.008339934051036835
            ]
        }
    ],
    "materials" : [
        {
            "doubleSided" : true,
            "name" : "Material.002",
            "pbrMetallicRoughness" : {
                "baseColorFactor" : [
                    0.8000000715255737,
                    0.018302058801054955,
                    0,
                    1
                ],
                "metallicFactor" : 0,
                "roughnessFactor" : 0.5
            }
        },
        {
            "doubleSided" : true,
            "name" : "Material.001",
            "pbrMetallicRoughness" : {
                "baseColorFactor" : [
                    0.541009247303009,
                    0.8000000715255737,
                    0,
                    1
                ],
                "metallicFactor" : 0,
                "roughnessFactor" : 0.5
            }
        },
        {
            "doubleSided" : true,
            "name" : "Material.003",
            "pbrMetallicRoughness" : {
                "baseColorFactor" : [
                    0,
                    0,
                    0,
                    1
                ],
                "metallicFactor" : 0,
                "roughnessFactor" : 0.5
            }
        }
    ],
    "meshes" : [
        {
            "name" : "Cylinder",
            "primitives" : [
                {
                    "attributes" : {
                        "POSITION" : 0,
                        "NORMAL" : 1,
                        "TEXCOORD_0" : 2
                    },
                    "indices" : 3,
                    "material" : 0
                },
                {
                    "attributes" : {
                        "POSITION" : 4,
                        "NORMAL" : 5,
                        "TEXCOORD_0" : 6
                    },
                    "indices" : 7,
                    "material" : 1
                }
            ]
        },
        {
            "name" : "Text",
            "primitives" : [
                {
                    "attributes" : {
                        "POSITION" : 8,
                        "NORMAL" : 9,
                        "TEXCOORD_0" : 10
                    },
                    "indices" : 11,
                    "material" : 2
                }
            ]
        }
    ],
    "accessors" : [
        {
            "bufferView" : 0,
            "componentType" : 5126,
            "count" : 250,
            "max" : [
                1,
                1,
                1
            ],
            "min" : [
                -1,
                -1,
                -1
            ],
            "type" : "VEC3"
        },
        {
            "bufferView" : 1,
            "componentType" : 5126,
            "count" : 250,
            "type" : "VEC3"
        },
        {
            "bufferView" : 2,
            "componentType" : 5126,
            "count" : 250,
            "type" : "VEC2"
        },
        {
            "bufferView" : 3,
            "componentType" : 5123,
            "count" : 474,
            "type" : "SCALAR"
        },
        {
            "bufferView" : 4,
            "componentType" : 5126,
            "count" : 672,
            "max" : [
                0.8558096289634705,
                1.9043312072753906,
                0.8558096289634705
            ],
            "min" : [
                -0.8558096289634705,
                0.9999999403953552,
                -0.8558096289634705
            ],
            "type" : "VEC3"
        },
        {
            "bufferView" : 5,
            "componentType" : 5126,
            "count" : 672,
            "type" : "VEC3"
        },
        {
            "bufferView" : 6,
            "componentType" : 5126,
            "count" : 672,
            "type" : "VEC2"
        },
        {
            "bufferView" : 7,
            "componentType" : 5123,
            "count" : 1050,
            "type" : "SCALAR"
        },
        {
            "bufferView" : 8,
            "componentType" : 5126,
            "count" : 4447,
            "max" : [
                1.3890000581741333,
                0.05999999865889549,
                1.3454999923706055
            ],
            "min" : [
                -0.9660000205039978,
                -0.05999999865889549,
                -0.12150001525878906
            ],
            "type" : "VEC3"
        },
        {
            "bufferView" : 9,
            "componentType" : 5126,
            "count" : 4447,
            "type" : "VEC3"
        },
        {
            "bufferView" : 10,
            "componentType" : 5126,
            "count" : 4447,
            "type" : "VEC2"
        },
        {
            "bufferView" : 11,
            "componentType" : 5123,
            "count" : 8148,
            "type" : "SCALAR"
        }
    ],
    "bufferViews" : [
        {
            "buffer" : 0,
            "byteLength" : 3000,
            "byteOffset" : 0,
            "target" : 34962
        },
        {
            "buffer" : 0,
            "byteLength" : 3000,
            "byteOffset" : 3000,
            "target" : 34962
        },
        {
            "buffer" : 0,
            "byteLength" : 2000,
            "byteOffset" : 6000,
            "target" : 34962
        },
        {
            "buffer" : 0,
            "byteLength" : 948,
            "byteOffset" : 8000,
            "target" : 34963
        },
        {
            "buffer" : 0,
            "byteLength" : 8064,
            "byteOffset" : 8948,
            "target" : 34962
        },
        {
            "buffer" : 0,
            "byteLength" : 8064,
            "byteOffset" : 17012,
            "target" : 34962
        },
        {
            "buffer" : 0,
            "byteLength" : 5376,
            "byteOffset" : 25076,
            "target" : 34962
        },
        {
            "buffer" : 0,
            "byteLength" : 2100,
            "byteOffset" : 30452,
            "target" : 34963
        },
        {
            "buffer" : 0,
            "byteLength" : 53364,
            "byteOffset" : 32552,
            "target" : 34962
        },
        {
            "buffer" : 0,
            "byteLength" : 53364,
            "byteOffset" : 85916,
            "target" : 34962
        },
        {
            "buffer" : 0,
            "byteLength" : 35576,
            "byteOffset" : 139280,
            "target" : 34962
        },
        {
            "buffer" : 0,
            "byteLength" : 16296,
            "byteOffset" : 174856,
            "target" : 34963
        }
    ],
    "buffers" : [
        {
            "byteLength" : 191152,
            "uri" : "data:application/octet-stream;base64,"
        }
    ]
}
