{
    "asset" : {
        "generator" : "Khronos glTF Blender I/O v3.3.32",
        "version" : "2.0"
    },
    "scene" : 0,
    "scenes" : [
        {
            "name" : "Scene",
            "nodes" : [
                0
            ]
        }
    ],
    "nodes" : [
        {
            "mesh" : 0,
            "name" : "Cylinder.020",
            "rotation" : [
                0.7632259726524353,
                0.646131694316864,
                0,
                0
            ],
            "scale" : [
                -0.6915019750595093,
                -0.2678631842136383,
                -0.6915019750595093
            ],
            "translation" : [
                14.60993766784668,
                3.5494799613952637,
                26.36448097229004
            ]
        }
    ],
    "materials" : [
        {
            "doubleSided" : true,
            "name" : "Material.019",
            "pbrMetallicRoughness" : {
                "baseColorFactor" : [
                    0.014242657460272312,
                    0.014242657460272312,
                    0.014242657460272312,
                    1
                ],
                "metallicFactor" : 0,
                "roughnessFactor" : 0.5
            }
        },
        {
            "doubleSided" : true,
            "name" : "Material.020",
            "pbrMetallicRoughness" : {
                "baseColorFactor" : [
                    0.18072067201137543,
                    0.08570235222578049,
                    0.006716905627399683,
                    1
                ],
                "metallicFactor" : 0,
                "roughnessFactor" : 0.5
            }
        },
        {
            "doubleSided" : true,
            "name" : "Material.021",
            "pbrMetallicRoughness" : {
                "baseColorFactor" : [
                    0.8000000715255737,
                    0.20421382784843445,
                    0.00650427769869566,
                    1
                ],
                "metallicFactor" : 0,
                "roughnessFactor" : 0.5
            }
        },
        {
            "doubleSided" : true,
            "name" : "Material.018",
            "pbrMetallicRoughness" : {
                "baseColorFactor" : [
                    0.045281749218702316,
                    0.045281749218702316,
                    0.045281749218702316,
                    1
                ],
                "metallicFactor" : 0,
                "roughnessFactor" : 0.5
            }
        }
    ],
    "meshes" : [
        {
            "name" : "Cylinder.130",
            "primitives" : [
                {
                    "attributes" : {
                        "POSITION" : 0,
                        "NORMAL" : 1,
                        "TEXCOORD_0" : 2
                    },
                    "indices" : 3,
                    "material" : 0
                },
                {
                    "attributes" : {
                        "POSITION" : 4,
                        "NORMAL" : 5,
                        "TEXCOORD_0" : 6
                    },
                    "indices" : 7
                },
                {
                    "attributes" : {
                        "POSITION" : 8,
                        "NORMAL" : 9,
                        "TEXCOORD_0" : 10
                    },
                    "indices" : 11,
                    "material" : 1
                },
                {
                    "attributes" : {
                        "POSITION" : 12,
                        "NORMAL" : 13,
                        "TEXCOORD_0" : 14
                    },
                    "indices" : 15,
                    "material" : 2
                },
                {
                    "attributes" : {
                        "POSITION" : 16,
                        "NORMAL" : 17,
                        "TEXCOORD_0" : 18
                    },
                    "indices" : 19,
                    "material" : 3
                }
            ]
        }
    ],
    "accessors" : [
        {
            "bufferView" : 0,
            "componentType" : 5126,
            "count" : 4144,
            "max" : [
                8.130270004272461,
                66.49787902832031,
                18.902219772338867
            ],
            "min" : [
                -16.66152572631836,
                -1,
                -44.38717269897461
            ],
            "type" : "VEC3"
        },
        {
            "bufferView" : 1,
            "componentType" : 5126,
            "count" : 4144,
            "type" : "VEC3"
        },
        {
            "bufferView" : 2,
            "componentType" : 5126,
            "count" : 4144,
            "type" : "VEC2"
        },
        {
            "bufferView" : 3,
            "componentType" : 5123,
            "count" : 7356,
            "type" : "SCALAR"
        },
        {
            "bufferView" : 4,
            "componentType" : 5126,
            "count" : 1438,
            "max" : [
                -0.5518209934234619,
                74.37811279296875,
                44.073150634765625
            ],
            "min" : [
                -18.533199310302734,
                -3.0238914489746094,
                -70.26541900634766
            ],
            "type" : "VEC3"
        },
        {
            "bufferView" : 5,
            "componentType" : 5126,
            "count" : 1438,
            "type" : "VEC3"
        },
        {
            "bufferView" : 6,
            "componentType" : 5126,
            "count" : 1438,
            "type" : "VEC2"
        },
        {
            "bufferView" : 7,
            "componentType" : 5123,
            "count" : 2328,
            "type" : "SCALAR"
        },
        {
            "bufferView" : 8,
            "componentType" : 5126,
            "count" : 8,
            "max" : [
                -1.9363503456115723,
                70.82008361816406,
                40.07963562011719
            ],
            "min" : [
                -6.569812774658203,
                -0.6678962707519531,
                -66.27189636230469
            ],
            "type" : "VEC3"
        },
        {
            "bufferView" : 9,
            "componentType" : 5126,
            "count" : 8,
            "type" : "VEC3"
        },
        {
            "bufferView" : 10,
            "componentType" : 5126,
            "count" : 8,
            "type" : "VEC2"
        },
        {
            "bufferView" : 11,
            "componentType" : 5123,
            "count" : 12,
            "type" : "SCALAR"
        },
        {
            "bufferView" : 12,
            "componentType" : 5126,
            "count" : 32,
            "max" : [
                15.354023933410645,
                70.27510070800781,
                39.78130340576172
            ],
            "min" : [
                -5.1919755935668945,
                -1.3161201477050781,
                -65.97356414794922
            ],
            "type" : "VEC3"
        },
        {
            "bufferView" : 13,
            "componentType" : 5126,
            "count" : 32,
            "type" : "VEC3"
        },
        {
            "bufferView" : 14,
            "componentType" : 5126,
            "count" : 32,
            "type" : "VEC2"
        },
        {
            "bufferView" : 15,
            "componentType" : 5123,
            "count" : 48,
            "type" : "SCALAR"
        },
        {
            "bufferView" : 16,
            "componentType" : 5126,
            "count" : 10080,
            "max" : [
                -3.74477481842041,
                67.94342803955078,
                29.79587745666504
            ],
            "min" : [
                -15.711039543151855,
                4.580410957336426,
                -46.41469955444336
            ],
            "type" : "VEC3"
        },
        {
            "bufferView" : 17,
            "componentType" : 5126,
            "count" : 10080,
            "type" : "VEC3"
        },
        {
            "bufferView" : 18,
            "componentType" : 5126,
            "count" : 10080,
            "type" : "VEC2"
        },
        {
            "bufferView" : 19,
            "componentType" : 5123,
            "count" : 19392,
            "type" : "SCALAR"
        }
    ],
    "bufferViews" : [
        {
            "buffer" : 0,
            "byteLength" : 49728,
            "byteOffset" : 0,
            "target" : 34962
        },
        {
            "buffer" : 0,
            "byteLength" : 49728,
            "byteOffset" : 49728,
            "target" : 34962
        },
        {
            "buffer" : 0,
            "byteLength" : 33152,
            "byteOffset" : 99456,
            "target" : 34962
        },
        {
            "buffer" : 0,
            "byteLength" : 14712,
            "byteOffset" : 132608,
            "target" : 34963
        },
        {
            "buffer" : 0,
            "byteLength" : 17256,
            "byteOffset" : 147320,
            "target" : 34962
        },
        {
            "buffer" : 0,
            "byteLength" : 17256,
            "byteOffset" : 164576,
            "target" : 34962
        },
        {
            "buffer" : 0,
            "byteLength" : 11504,
            "byteOffset" : 181832,
            "target" : 34962
        },
        {
            "buffer" : 0,
            "byteLength" : 4656,
            "byteOffset" : 193336,
            "target" : 34963
        },
        {
            "buffer" : 0,
            "byteLength" : 96,
            "byteOffset" : 197992,
            "target" : 34962
        },
        {
            "buffer" : 0,
            "byteLength" : 96,
            "byteOffset" : 198088,
            "target" : 34962
        },
        {
            "buffer" : 0,
            "byteLength" : 64,
            "byteOffset" : 198184,
            "target" : 34962
        },
        {
            "buffer" : 0,
            "byteLength" : 24,
            "byteOffset" : 198248,
            "target" : 34963
        },
        {
            "buffer" : 0,
            "byteLength" : 384,
            "byteOffset" : 198272,
            "target" : 34962
        },
        {
            "buffer" : 0,
            "byteLength" : 384,
            "byteOffset" : 198656,
            "target" : 34962
        },
        {
            "buffer" : 0,
            "byteLength" : 256,
            "byteOffset" : 199040,
            "target" : 34962
        },
        {
            "buffer" : 0,
            "byteLength" : 96,
            "byteOffset" : 199296,
            "target" : 34963
        },
        {
            "buffer" : 0,
            "byteLength" : 120960,
            "byteOffset" : 199392,
            "target" : 34962
        },
        {
            "buffer" : 0,
            "byteLength" : 120960,
            "byteOffset" : 320352,
            "target" : 34962
        },
        {
            "buffer" : 0,
            "byteLength" : 80640,
            "byteOffset" : 441312,
            "target" : 34962
        },
        {
            "buffer" : 0,
            "byteLength" : 38784,
            "byteOffset" : 521952,
            "target" : 34963
        }
    ],
    "buffers" : [
        {
            "byteLength" : 560736,
            "uri" : "data:application/octet-stream;base64,"
        }
    ]
}
